<?xml version="1.0" encoding="utf-8"?>
<!-- Generator: Adobe Illustrator 18.1.1, SVG Export Plug-In . SVG Version: 6.00 Build 0)  -->
<svg version="1.1" id="Layer_1" xmlns="http://www.w3.org/2000/svg" xmlns:xlink="http://www.w3.org/1999/xlink" x="0px" y="0px"
	 viewBox="0 0 128 128" enable-background="new 0 0 128 128" xml:space="preserve">
<path fill="#83CD29" d="M42,40.3c-0.7,0-1.4,0.6-1.4,1.3v53.1c0,4.1-4.2,8.2-11.2,4.7L16.6,92c-0.4-0.2-0.7-0.7-0.7-1.2V37.1
	c0-0.5,0.3-1,0.7-1.3L63.3,8.9c0.4-0.3,1-0.3,1.4,0l46.6,26.9c0.4,0.3,0.7,0.8,0.7,1.3v53.8c0,0.5-0.3,1-0.7,1.3l-46.6,26.9
	c-0.4,0.2-1,0.2-1.4,0l-12-7.1c-0.4-0.2-0.8-0.3-1.2-0.1c-3.3,1.9-3.9,2.1-7,3.2c-0.8,0.3-1.9,0.7,0.4,2l15.6,9.2
	c1.5,0.9,3.2,1.3,4.9,1.3c1.7,0,3.4-0.4,4.9-1.3l46.6-26.9c3-1.8,4.9-5,4.9-8.5V37.1c0-3.5-1.9-6.8-4.9-8.5l-46.6-27
	C66,0,62,0,59.1,1.6l-46.6,27c-3,1.7-4.9,5-4.9,8.5v53.8c0,3.5,1.9,6.8,4.9,8.5l12.2,7c5.9,2.9,8,2.9,10.7,2.9
	c8.8,0,13.8-5.3,13.8-14.6V48.9h13l-7.4,7.4c-0.8,0.8-1.3,1.9-1.3,3V74c0,1.7,1,3.3,2.7,4c1.6,0.7,3.5,0.3,4.7-0.9l28.2-28.2h2.6
	L54.8,85.8c-1.2,1.2-1.6,3.1-0.9,4.7s2.2,2.7,4,2.7h14.7c1.1,0,2.2-0.5,3-1.3l22.1-22.1v2.6L84.3,85.8c-1.2,1.2-1.6,3.1-0.9,4.7
	s2.2,2.7,4,2.7h19v-8.6h-8.6l7.4-7.4c0.8-0.8,1.3-1.9,1.3-3V59.4c0-1.7-1-3.3-2.7-4c-1.6-0.7-3.5-0.3-4.7,0.9L70.8,84.5h-2.6
	L105,47.7c1.2-1.2,1.6-3.1,0.9-4.7s-2.2-2.7-4-2.7H87.3c-1.1,0-2.2,0.5-3,1.3L62.2,63.7v-2.6l13.5-13.5c1.2-1.2,1.6-3.1,0.9-4.7
	s-2.2-2.7-4-2.7"/>
</svg>
